<svg width="140" height="32" viewBox="0 0 140 32" fill="none" xmlns="http://www.w3.org/2000/svg">
<g clip-path="url(#clip0_902_897)">
<path d="M12.5913 11.4297L9.72777 14.2876L9.15461 14.8623L8.58373 15.4303L6.86425 17.1477L6.29565 17.7179L5.72477 18.2859L4.00757 20.0033L3.43669 20.5712H0V11.4297H11.4427H12.5913Z" fill="#90D36C"/>
<path d="M4.57616 0L3.43212 1.14269L2.28808 2.28539L0 4.57078V9.14155H18.3069L16.0189 11.4269L12.5867 14.855L11.4427 15.9977L9.15461 18.2831L8.01057 19.4258L6.86653 20.5685L5.72249 21.7112L4.57845 22.8539H0V31.9977H6.86425L8.00829 30.855L9.15233 29.7123L10.2964 28.5696L11.4404 27.4269L13.7285 25.1416L18.3047 20.5708L19.4487 19.4281L20.5927 18.2854L21.7368 17.1427L22.8808 16L25.1689 13.7146V32H27.457L28.601 30.8573L29.7451 29.7146L32.0331 27.4292V0H4.57616Z" fill="#022538"/>
<path d="M22.8856 19.4277V22.8558H22.8833H22.8856V31.9997H10.2988L12.5869 29.7143L13.1578 29.1418L13.731 28.5716L14.3018 27.9991L14.875 27.4289L15.4459 26.8564L16.019 26.2839L16.5922 25.7137L17.1631 25.1435L17.7362 24.571L18.3071 23.9985L22.3124 20.0002L22.8856 19.4277Z" fill="#90D36C"/>
<path d="M51.4374 3.20215V14.2505H49.4622V5.17734H40.4811V7.74099H49.4622L47.4846 9.71391H40.4811V14.2505H38.5059V5.17734L40.4811 3.20215H51.4374Z" fill="#022538"/>
<path d="M70.04 3.20215H68.0625V12.2753H70.04V3.20215Z" fill="#022538"/>
<path d="M125.248 3.20215V5.17734H114.296V12.2776H112.318V5.17278L114.291 3.20215H125.248Z" fill="#022538"/>
<path d="M125.248 12.2773L123.272 14.2503H112.318L114.296 12.2773H125.248Z" fill="#022538"/>
<path d="M51.4374 17.7471V19.72H40.4811V26.8248H38.5059V19.7177L40.4788 17.7471H51.4374Z" fill="#022538"/>
<path d="M55.2588 17.7471H53.2812V26.827H55.2588V17.7471Z" fill="#022538"/>
<path d="M114.296 17.7471V26.8225L114.291 26.8248H112.318V17.7471H114.296Z" fill="#022538"/>
<path d="M70.0355 17.7471L68.0625 19.7177V28.7977H79.0211L80.994 26.827V17.7471H70.0355ZM78.9983 26.827H70.0377V19.7223H78.9983V26.827Z" fill="#022538"/>
<path d="M110.492 17.7471V28.7977H108.516V19.72H99.5468V22.2836H108.516L106.539 24.2588H99.5468V28.7977H97.5898V19.6972L99.5445 17.7471H110.492Z" fill="#022538"/>
<path d="M110.492 3.20215V12.2776L109.503 13.2629L108.516 14.2505H107.697L105.721 12.2776L103.157 9.71391L101.18 7.74099L99.5468 6.1102V14.2505H97.5898V5.15682L98.0922 4.65504L99.4897 3.26145L99.5468 3.31847L101.408 5.17734L103.975 7.74099L105.952 9.71391L108.516 12.2753V3.20215H110.492Z" fill="#022538"/>
<path d="M95.7349 3.20215V14.2505H93.7574V5.17734H84.8014V7.74099H93.7574L91.7821 9.71391H84.8014V14.2505H82.8262V5.17734L84.8014 3.20215H95.7349Z" fill="#022538"/>
<path d="M140 3.20215V5.17734H129.044V7.74099H137.63V9.71391H129.044V12.2776H127.066V5.17734L129.044 3.20215H140Z" fill="#022538"/>
<path d="M66.174 5.17734V12.2593L66.158 12.2776L64.1987 14.2345L64.1827 14.2505H53.2881L55.2588 12.2844L55.2656 12.2776H64.1987V5.17734H55.2588V12.2776H53.2812V3.20215H64.1987L66.174 5.17734Z" fill="#022538"/>
<path d="M80.994 3.20215V7.00657L80.2588 7.74099L78.9983 9.00001L78.2812 9.71391L75.7168 12.2776L73.7416 14.2505H68.0625L70.0377 12.2776H72.9218L75.4885 9.71391L77.4637 7.74099L78.9983 6.20828V3.20215H80.994Z" fill="#022538"/>
<path d="M140 12.2773L138.023 14.2503H127.066L129.044 12.2773H140Z" fill="#022538"/>
<path d="M51.4358 22.2832V26.8243L49.4628 28.7972H38.5156L40.4794 26.8335L40.4886 26.8243H49.4605V24.2584H43.0598L45.0351 22.2832H51.4358Z" fill="#022538"/>
<path d="M66.1753 26.8252V28.7981H53.2871L55.2601 26.8275L55.2623 26.8252H66.1753Z" fill="#022538"/>
<path d="M95.7349 19.7177V22.2836L94.7644 23.253L95.7349 24.2223V26.8248L93.7619 28.7977H82.8285L84.8014 26.8248H93.7574V24.2588H87.3727L89.3479 22.2836H93.7574V19.72H84.8014V26.8248H82.8262V17.7471H93.7619L95.7349 19.7177Z" fill="#022538"/>
<path d="M125.248 26.8252V28.7981H112.318L114.291 26.8252H125.248Z" fill="#022538"/>
</g>
<defs>
<clipPath id="clip0_902_897">
<rect width="140" height="32" fill="white"/>
</clipPath>
</defs>
</svg>
